Coordinates
version=1
nRows=27
nColumns=12
inDegrees=yes

Units are S.I. units (second, meters, Newtons, ...)
Angles are in degrees

endheader
time	SC_y	SC_z	SC_x	AC_y	AC_z	AC_x	GH_y	GH_z	GH_yy	EL_x	PS_y
       0.0              -14.39          24.72          62.32          53.73         -18.11          8.022         -168.1          50.74          75.93          14.69          38.93
   0.03655              -14.39          24.72          62.32          53.74         -18.11          8.019         -168.1          50.73          75.94           14.7          38.94
   0.07311               -14.4          24.72          62.31          53.74         -18.11          8.016         -168.0          50.73          75.96          14.72          38.96
    0.1097              -14.41          24.72          62.31          53.74          -18.1          8.012         -168.0          50.72          75.97          14.74          38.97
    0.1462              -14.41          24.72           62.3          53.74          -18.1          8.009         -167.9          50.71          75.99          14.76          38.98
    0.1828              -14.42          24.71          62.29          53.74         -18.09          8.005         -167.9           50.7          76.01          14.79          38.99
    0.2193              -14.43          24.71          62.29          53.74         -18.09          8.001         -167.9           50.7          76.03          14.81          39.01
    0.2559              -14.44          24.71          62.28          53.74         -18.08          7.996         -167.8          50.69          76.05          14.84          39.02
    0.2924              -14.45           24.7          62.27          53.75         -18.08          7.992         -167.8          50.68          76.07          14.86          39.04
     0.329              -14.46           24.7          62.26          53.75         -18.07          7.987         -167.7          50.67          76.09          14.89          39.06
    0.3655              -14.47           24.7          62.25          53.75         -18.06          7.981         -167.6          50.66          76.11          14.93          39.08
    0.4021              -14.49          24.69          62.24          53.75         -18.06          7.976         -167.6          50.64          76.14          14.96           39.1
    0.4386               -14.5          24.69          62.23          53.75         -18.05          7.969         -167.5          50.63          76.17           15.0          39.12
    0.4752              -14.51          24.68          62.22          53.76         -18.04          7.963         -167.4          50.62           76.2          15.04          39.14
    0.5117              -14.53          24.68          62.21          53.76         -18.03          7.955         -167.4           50.6          76.23          15.08          39.17
    0.5483              -14.55          24.67           62.2          53.76         -18.02          7.947         -167.3          50.59          76.27          15.13           39.2
    0.5849              -14.57          24.67          62.18          53.76         -18.01          7.939         -167.2          50.57          76.31          15.18          39.23
    0.6214              -14.59          24.66          62.17          53.77          -18.0          7.929         -167.1          50.55          76.35          15.23          39.26
     0.658              -14.61          24.65          62.15          53.77         -17.98          7.919         -167.0          50.53          76.39          15.29           39.3
    0.6945              -14.63          24.64          62.13          53.77         -17.97          7.908         -166.8          50.51          76.44          15.36          39.34
    0.7311              -14.66          24.64          62.11          53.78         -17.96          7.896         -166.7          50.48           76.5          15.43          39.38
    0.7676              -14.69          24.63          62.09          53.78         -17.94          7.882         -166.5          50.45          76.56          15.51          39.43
    0.8042              -14.72          24.62          62.06          53.79         -17.92          7.867         -166.4          50.42          76.63           15.6          39.48
    0.8407              -14.76           24.6          62.03           53.8          -17.9           7.85         -166.2          50.39           76.7           15.7          39.54
    0.8773               -14.8          24.59           62.0           53.8         -17.88          7.832         -166.0          50.35          76.79          15.81           39.6
    0.9138              -14.84          24.58          61.97          53.81         -17.85          7.811         -165.8          50.31          76.88          15.93          39.68
    0.9504              -14.89          24.56          61.93          53.82         -17.82          7.788         -165.5          50.26          76.98          16.07          39.76
